<svg id="Layer_1" data-name="Layer 1" xmlns="http://www.w3.org/2000/svg" xmlns:xlink="http://www.w3.org/1999/xlink" viewBox="0 0 197.75 61.75"><defs><style>.cls-1,.cls-2{fill:none;}.cls-1{clip-rule:evenodd;}.cls-3{clip-path:url(#clip-path);}.cls-4{clip-path:url(#clip-path-2);}.cls-5{fill:#010101;}.cls-6{clip-path:url(#clip-path-3);}.cls-7{clip-path:url(#clip-path-5);}.cls-8{clip-path:url(#clip-path-7);}.cls-9{clip-path:url(#clip-path-9);}.cls-10{clip-path:url(#clip-path-11);}.cls-11{clip-path:url(#clip-path-13);}.cls-12{clip-path:url(#clip-path-15);}.cls-13{clip-path:url(#clip-path-17);}.cls-14{clip-path:url(#clip-path-19);}.cls-15{clip-path:url(#clip-path-21);}.cls-16{fill:#2e5798;}.cls-17{clip-path:url(#clip-path-23);}.cls-18{fill:#cf202f;}.cls-19{fill:#666;}</style><clipPath id="clip-path" transform="translate(-92.9 -156.69)"><path class="cls-1" d="M107.12,185.73v4.51h3.95v3.36h-3.61v4.51H114L115.7,196v-10.3Zm-7.53-8-1.69,2.06V196l1.69,2.12h6.46V193.6h-3.24V182.26h3.24v-4.51Zm7.87,0v4.51h3.75v1.86h4.48v-4.34l-1.69-2Z"/></clipPath><clipPath id="clip-path-2" transform="translate(-92.9 -156.69)"><rect class="cls-2" x="73.87" y="138.69" width="961" height="2324"/></clipPath><clipPath id="clip-path-3" transform="translate(-92.9 -156.69)"><path class="cls-1" d="M118.23,198.11h4.91V177.75h-4.91Zm6.32,0h8.08V193.6h-8.08Z"/></clipPath><clipPath id="clip-path-5" transform="translate(-92.9 -156.69)"><path class="cls-1" d="M137.87,198.11h-4.68l5-14.44h3.5l.62,1.64Zm5.24-9.93h1.83l-2.11-5.92h-4.09l1.58-4.51h5.61l7.13,20.36h-4.62l-1.92-5.42h-5Z"/></clipPath><clipPath id="clip-path-7" transform="translate(-92.9 -156.69)"><path class="cls-1" d="M156.17,177.75h6.26v4.51h-3V193.6h3v4.51h-6.26L154.48,196V179.81Zm7.67,4.51v-4.51h6.29l1.69,2v5.5h-4.48v-3Zm0,15.85V193.6h3.5v-3h4.48V196l-1.69,2.09Z"/></clipPath><clipPath id="clip-path-9" transform="translate(-92.9 -156.69)"><rect class="cls-2" x="175.16" y="177.75" width="4.91" height="20.37"/></clipPath><clipPath id="clip-path-11" transform="translate(-92.9 -156.69)"><path class="cls-1" d="M183.83,198.11h4.91V177.75h-4.91Zm4.89-15.85H199.6v-4.51H188.72Zm1.43,7.78h7.22v-4.51h-7.22Zm-1.43,8.07H199.6V193.6H188.72Z"/></clipPath><clipPath id="clip-path-13" transform="translate(-92.9 -156.69)"><path class="cls-1" d="M202.66,198.11h4.91V177.75h-4.91Zm4.91-15.85v-4.51h10.12l1.69,2V188L218,189.71l1.89,8.41H215l-1.66-6.94H209v-4.51h5.5v-4.4Z"/></clipPath><clipPath id="clip-path-15" transform="translate(-92.9 -156.69)"><path class="cls-1" d="M228.87,182.26h17.44v-4.51H228.87Zm6.29,15.85h4.91V183.67h-4.91Z"/></clipPath><clipPath id="clip-path-17" transform="translate(-92.9 -156.69)"><path class="cls-1" d="M248.75,198.11h4.91V177.75h-4.91Zm4.89-15.85h10.87v-4.51H253.65Zm1.42,7.78h7.22v-4.51h-7.22Zm-1.42,8.07h10.87V193.6H253.65Z"/></clipPath><clipPath id="clip-path-19" transform="translate(-92.9 -156.69)"><path class="cls-1" d="M276.72,190.24l3.38,7.87h5.55l-5.27-12.33Zm-9.61,7.87H272V177.75H267.1ZM279,177.75l-5.58,7.08v7L285,177.75Z"/></clipPath><clipPath id="clip-path-21" transform="translate(-92.9 -156.69)"><polygon class="cls-1" points="225.65 207.18 219.15 200.68 216.02 203.81 225.65 213.44 235.28 203.81 232.15 200.68 225.65 207.18"/></clipPath><clipPath id="clip-path-23" transform="translate(-92.9 -156.69)"><polygon class="cls-1" points="225.24 161.69 215.61 171.32 218.74 174.45 225.24 167.95 231.74 174.45 234.87 171.32 225.24 161.69"/></clipPath></defs><title>glacier-tek-logo</title><g class="cls-3"><g class="cls-4"><rect class="cls-5" y="16.06" width="27.79" height="30.37"/></g></g><g class="cls-6"><g class="cls-4"><rect class="cls-5" x="20.33" y="16.06" width="24.4" height="30.37"/></g></g><g class="cls-7"><g class="cls-4"><rect class="cls-5" x="35.29" y="16.06" width="29.88" height="30.36"/></g></g><g class="cls-8"><g class="cls-4"><rect class="cls-5" x="56.57" y="16.06" width="27.34" height="30.37"/></g></g><g class="cls-9"><g class="cls-4"><rect class="cls-5" x="77.26" y="16.06" width="14.91" height="30.37"/></g></g><g class="cls-10"><g class="cls-4"><rect class="cls-5" x="85.93" y="16.06" width="25.76" height="30.37"/></g></g><g class="cls-11"><g class="cls-4"><rect class="cls-5" x="104.75" y="16.06" width="27.2" height="30.37"/></g></g><g class="cls-12"><g class="cls-4"><rect class="cls-5" x="130.97" y="16.06" width="27.44" height="30.37"/></g></g><g class="cls-13"><g class="cls-4"><rect class="cls-5" x="150.85" y="16.06" width="25.76" height="30.37"/></g></g><g class="cls-14"><g class="cls-4"><rect class="cls-5" x="169.2" y="16.06" width="28.55" height="30.37"/></g></g><g class="cls-15"><g class="cls-4"><rect class="cls-16" x="118.12" y="38.99" width="29.26" height="22.76"/></g></g><g class="cls-17"><g class="cls-4"><rect class="cls-18" x="117.71" width="29.26" height="22.76"/></g></g><path class="cls-19" d="M102.17,202.31a2.44,2.44,0,0,1,1.8.61,2.71,2.71,0,0,1,0,3.43,2.39,2.39,0,0,1-1.8.61h-2.4v3.21h-1v-7.85Zm-.35,3.76a1.87,1.87,0,0,0,1.3-.36,1.38,1.38,0,0,0,.41-1.08,1.36,1.36,0,0,0-.41-1.07,1.92,1.92,0,0,0-1.3-.37h-2v2.88Z" transform="translate(-92.9 -156.69)"/><path class="cls-19" d="M106.54,204.48v1.2h0a2.53,2.53,0,0,1,.84-1,2.1,2.1,0,0,1,1.25-.31v1a2.65,2.65,0,0,0-1,.15,1.5,1.5,0,0,0-.64.45,1.86,1.86,0,0,0-.35.72,3.9,3.9,0,0,0-.11,1v2.53h-.94v-5.69Z" transform="translate(-92.9 -156.69)"/><path class="cls-19" d="M113.2,209.8a2.58,2.58,0,0,1-1.61.48,2.92,2.92,0,0,1-1.18-.22,2.34,2.34,0,0,1-.84-.62,2.61,2.61,0,0,1-.51-.95,4.55,4.55,0,0,1-.19-1.2,3.41,3.41,0,0,1,.2-1.19,2.85,2.85,0,0,1,.56-.94,2.52,2.52,0,0,1,.85-.62,2.57,2.57,0,0,1,1.07-.22,2.33,2.33,0,0,1,1.26.31,2.5,2.5,0,0,1,.8.8,3.15,3.15,0,0,1,.42,1.06,4.53,4.53,0,0,1,.09,1.09h-4.26a2.25,2.25,0,0,0,.09.71,1.6,1.6,0,0,0,.32.59,1.56,1.56,0,0,0,.56.41,1.94,1.94,0,0,0,.8.15,1.62,1.62,0,0,0,1-.27,1.33,1.33,0,0,0,.5-.84H114A2.27,2.27,0,0,1,113.2,209.8Zm-.23-3.65a1.59,1.59,0,0,0-1.49-1,1.62,1.62,0,0,0-.65.13,1.51,1.51,0,0,0-.5.35,1.67,1.67,0,0,0-.33.51,1.94,1.94,0,0,0-.14.62h3.27A1.9,1.9,0,0,0,113,206.15Z" transform="translate(-92.9 -156.69)"/><path class="cls-19" d="M116,204.48v.77h0a1.4,1.4,0,0,1,.73-.69,2.72,2.72,0,0,1,1.09-.21,2.57,2.57,0,0,1,1.15.24,2.34,2.34,0,0,1,.81.65,2.9,2.9,0,0,1,.49,1,3.89,3.89,0,0,1,.17,1.14,4,4,0,0,1-.16,1.14,2.69,2.69,0,0,1-.48.94,2.27,2.27,0,0,1-.81.63,2.64,2.64,0,0,1-1.14.23,2.81,2.81,0,0,1-.47,0,2.58,2.58,0,0,1-.51-.14,2,2,0,0,1-.48-.27,1.49,1.49,0,0,1-.38-.42h0v2.93h-.94v-7.85Zm3.36,2a2.09,2.09,0,0,0-.32-.68,1.57,1.57,0,0,0-.55-.47,1.67,1.67,0,0,0-.79-.18,1.55,1.55,0,0,0-1.34.68,2,2,0,0,0-.3.69,3.34,3.34,0,0,0,0,1.59,2,2,0,0,0,.31.69,1.61,1.61,0,0,0,.56.48,1.75,1.75,0,0,0,.83.18,1.6,1.6,0,0,0,.81-.19,1.52,1.52,0,0,0,.52-.5,2.16,2.16,0,0,0,.29-.7,3.74,3.74,0,0,0,.09-.81A2.93,2.93,0,0,0,119.41,206.49Z" transform="translate(-92.9 -156.69)"/><path class="cls-19" d="M126.64,210.14a1.32,1.32,0,0,1-.67.14.81.81,0,0,1-.58-.2.89.89,0,0,1-.21-.67,2.24,2.24,0,0,1-.9.67,3.1,3.1,0,0,1-1.84.12,1.7,1.7,0,0,1-.6-.28,1.31,1.31,0,0,1-.4-.49,1.65,1.65,0,0,1-.15-.73,1.67,1.67,0,0,1,.17-.79,1.45,1.45,0,0,1,.43-.5,2,2,0,0,1,.62-.29,7.28,7.28,0,0,1,.71-.17q.39-.08.73-.12a4.14,4.14,0,0,0,.61-.11,1,1,0,0,0,.42-.21.51.51,0,0,0,.15-.4.94.94,0,0,0-.12-.5.79.79,0,0,0-.3-.29,1.2,1.2,0,0,0-.41-.13,3,3,0,0,0-.45,0,2,2,0,0,0-1,.23,1,1,0,0,0-.43.85h-.93a2,2,0,0,1,.22-.89,1.67,1.67,0,0,1,.53-.59,2.2,2.2,0,0,1,.75-.32,4,4,0,0,1,.91-.1,5.26,5.26,0,0,1,.76.06,2,2,0,0,1,.69.22,1.32,1.32,0,0,1,.5.48,1.53,1.53,0,0,1,.19.8v2.92a2.21,2.21,0,0,0,0,.48c0,.1.11.15.26.15a1.14,1.14,0,0,0,.29,0Zm-1.52-2.91a1.18,1.18,0,0,1-.46.19l-.6.1-.63.09a2.34,2.34,0,0,0-.57.16,1,1,0,0,0-.41.31.87.87,0,0,0-.16.55.75.75,0,0,0,.09.39.78.78,0,0,0,.24.26,1,1,0,0,0,.35.14,1.93,1.93,0,0,0,.42,0,2.22,2.22,0,0,0,.79-.13,1.66,1.66,0,0,0,.54-.32,1.26,1.26,0,0,0,.31-.42,1,1,0,0,0,.1-.42Z" transform="translate(-92.9 -156.69)"/><path class="cls-19" d="M128.36,204.48v1.2h0a2.53,2.53,0,0,1,.84-1,2.1,2.1,0,0,1,1.25-.31v1a2.65,2.65,0,0,0-1,.15,1.5,1.5,0,0,0-.64.45,1.86,1.86,0,0,0-.35.72,3.9,3.9,0,0,0-.11,1v2.53h-.94v-5.69Z" transform="translate(-92.9 -156.69)"/><path class="cls-19" d="M135,209.8a2.58,2.58,0,0,1-1.61.48,2.92,2.92,0,0,1-1.18-.22,2.34,2.34,0,0,1-.84-.62,2.61,2.61,0,0,1-.51-.95,4.55,4.55,0,0,1-.19-1.2,3.41,3.41,0,0,1,.2-1.19,2.85,2.85,0,0,1,.56-.94,2.52,2.52,0,0,1,.85-.62,2.57,2.57,0,0,1,1.07-.22,2.33,2.33,0,0,1,1.26.31,2.5,2.5,0,0,1,.8.8,3.15,3.15,0,0,1,.42,1.06,4.53,4.53,0,0,1,.09,1.09h-4.26a2.25,2.25,0,0,0,.09.71,1.6,1.6,0,0,0,.32.59,1.56,1.56,0,0,0,.56.41,1.94,1.94,0,0,0,.8.15,1.62,1.62,0,0,0,1-.27,1.33,1.33,0,0,0,.5-.84h.92A2.27,2.27,0,0,1,135,209.8Zm-.23-3.65a1.59,1.59,0,0,0-1.49-1,1.62,1.62,0,0,0-.65.13,1.51,1.51,0,0,0-.5.35,1.67,1.67,0,0,0-.33.51,1.94,1.94,0,0,0-.14.62h3.27A1.9,1.9,0,0,0,134.78,206.15Z" transform="translate(-92.9 -156.69)"/><path class="cls-19" d="M142.37,204.48v.82h-1.13v3.53a1,1,0,0,0,0,.26.27.27,0,0,0,.1.15.45.45,0,0,0,.21.07l.36,0h.43v.83h-.71a3.34,3.34,0,0,1-.62,0,.9.9,0,0,1-.42-.18.77.77,0,0,1-.24-.37,2.16,2.16,0,0,1-.08-.64V205.3h-1v-.82h1v-1.71h.94v1.71Z" transform="translate(-92.9 -156.69)"/><path class="cls-19" d="M143.27,206.15a2.66,2.66,0,0,1,.53-.95,2.49,2.49,0,0,1,.87-.63,3.18,3.18,0,0,1,2.38,0,2.51,2.51,0,0,1,.86.63,2.66,2.66,0,0,1,.53.95,3.8,3.8,0,0,1,.18,1.17,3.74,3.74,0,0,1-.18,1.17,2.66,2.66,0,0,1-.53.94,2.44,2.44,0,0,1-.86.63,3.26,3.26,0,0,1-2.38,0,2.42,2.42,0,0,1-.87-.63,2.66,2.66,0,0,1-.53-.94,3.74,3.74,0,0,1-.18-1.17A3.8,3.8,0,0,1,143.27,206.15Zm1,2.09a1.92,1.92,0,0,0,.38.67,1.65,1.65,0,0,0,.57.41,1.73,1.73,0,0,0,1.38,0,1.66,1.66,0,0,0,.57-.41,1.92,1.92,0,0,0,.38-.67,3.13,3.13,0,0,0,0-1.84,2,2,0,0,0-.38-.68,1.61,1.61,0,0,0-.57-.42,1.72,1.72,0,0,0-1.37,0,1.61,1.61,0,0,0-.57.42,2,2,0,0,0-.38.68,3.14,3.14,0,0,0,0,1.84Z" transform="translate(-92.9 -156.69)"/><path class="cls-19" d="M153.74,202.31v2.94h0a1.4,1.4,0,0,1,.73-.69,2.72,2.72,0,0,1,1.09-.21,2.57,2.57,0,0,1,1.15.24,2.34,2.34,0,0,1,.81.65,2.9,2.9,0,0,1,.49,1,3.89,3.89,0,0,1,.17,1.14,4,4,0,0,1-.16,1.14,2.69,2.69,0,0,1-.48.94,2.27,2.27,0,0,1-.81.63,2.64,2.64,0,0,1-1.14.23,2.81,2.81,0,0,1-.47,0,2.58,2.58,0,0,1-.51-.14,2,2,0,0,1-.48-.27,1.49,1.49,0,0,1-.38-.42h0v.76h-.94v-7.85Zm3.36,4.18a2.09,2.09,0,0,0-.32-.68,1.57,1.57,0,0,0-.55-.47,1.67,1.67,0,0,0-.79-.18,1.55,1.55,0,0,0-1.34.68,2,2,0,0,0-.3.69,3.34,3.34,0,0,0,0,1.59,2,2,0,0,0,.31.69,1.61,1.61,0,0,0,.56.48,1.75,1.75,0,0,0,.83.18,1.6,1.6,0,0,0,.81-.19,1.52,1.52,0,0,0,.52-.5,2.16,2.16,0,0,0,.29-.7,3.74,3.74,0,0,0,.09-.81A2.93,2.93,0,0,0,157.11,206.49Z" transform="translate(-92.9 -156.69)"/><path class="cls-19" d="M163.33,209.8a2.58,2.58,0,0,1-1.61.48,2.92,2.92,0,0,1-1.18-.22,2.34,2.34,0,0,1-.84-.62,2.61,2.61,0,0,1-.51-.95,4.55,4.55,0,0,1-.19-1.2,3.41,3.41,0,0,1,.2-1.19,2.85,2.85,0,0,1,.56-.94,2.52,2.52,0,0,1,.85-.62,2.57,2.57,0,0,1,1.07-.22,2.33,2.33,0,0,1,1.26.31,2.5,2.5,0,0,1,.8.8,3.15,3.15,0,0,1,.42,1.06,4.53,4.53,0,0,1,.09,1.09H160a2.25,2.25,0,0,0,.09.71,1.6,1.6,0,0,0,.32.59,1.56,1.56,0,0,0,.56.41,1.94,1.94,0,0,0,.8.15,1.62,1.62,0,0,0,1-.27,1.33,1.33,0,0,0,.5-.84h.92A2.27,2.27,0,0,1,163.33,209.8Zm-.23-3.65a1.59,1.59,0,0,0-1.49-1,1.62,1.62,0,0,0-.65.13,1.51,1.51,0,0,0-.5.35,1.67,1.67,0,0,0-.33.51,1.94,1.94,0,0,0-.14.62h3.27A1.9,1.9,0,0,0,163.1,206.15Z" transform="translate(-92.9 -156.69)"/><path class="cls-19" d="M171.66,205.47a1.42,1.42,0,0,0-.95-.3,1.74,1.74,0,0,0-.85.19,1.49,1.49,0,0,0-.54.5,2.08,2.08,0,0,0-.29.71,3.84,3.84,0,0,0-.09.83,3.15,3.15,0,0,0,.09.77,2.05,2.05,0,0,0,.29.67,1.47,1.47,0,0,0,.52.47,1.77,1.77,0,0,0,1.84-.19,1.64,1.64,0,0,0,.48-1h1a2.62,2.62,0,0,1-.79,1.63,2.47,2.47,0,0,1-1.72.57,3,3,0,0,1-1.15-.21,2.23,2.23,0,0,1-.84-.59,2.58,2.58,0,0,1-.51-.92,3.83,3.83,0,0,1-.17-1.17,4.18,4.18,0,0,1,.17-1.19,2.76,2.76,0,0,1,.5-1,2.34,2.34,0,0,1,.84-.65,2.75,2.75,0,0,1,1.18-.24,3.43,3.43,0,0,1,.91.12,2.2,2.2,0,0,1,.75.36,2,2,0,0,1,.53.61,2.26,2.26,0,0,1,.26.87h-1A1.43,1.43,0,0,0,171.66,205.47Z" transform="translate(-92.9 -156.69)"/><path class="cls-19" d="M174,206.15a2.66,2.66,0,0,1,.53-.95,2.49,2.49,0,0,1,.87-.63,3.18,3.18,0,0,1,2.38,0,2.51,2.51,0,0,1,.86.63,2.66,2.66,0,0,1,.53.95,3.8,3.8,0,0,1,.18,1.17,3.74,3.74,0,0,1-.18,1.17,2.66,2.66,0,0,1-.53.94,2.44,2.44,0,0,1-.86.63,3.26,3.26,0,0,1-2.38,0,2.42,2.42,0,0,1-.87-.63,2.66,2.66,0,0,1-.53-.94,3.74,3.74,0,0,1-.18-1.17A3.8,3.8,0,0,1,174,206.15Zm1,2.09a1.92,1.92,0,0,0,.38.67,1.65,1.65,0,0,0,.57.41,1.73,1.73,0,0,0,1.38,0,1.66,1.66,0,0,0,.57-.41,1.92,1.92,0,0,0,.38-.67,3.13,3.13,0,0,0,0-1.84,2,2,0,0,0-.38-.68,1.61,1.61,0,0,0-.57-.42,1.72,1.72,0,0,0-1.37,0,1.61,1.61,0,0,0-.57.42,2,2,0,0,0-.38.68,3.14,3.14,0,0,0,0,1.84Z" transform="translate(-92.9 -156.69)"/><path class="cls-19" d="M180.35,206.15a2.66,2.66,0,0,1,.53-.95,2.49,2.49,0,0,1,.87-.63,3.18,3.18,0,0,1,2.38,0,2.51,2.51,0,0,1,.86.63,2.66,2.66,0,0,1,.53.95,3.8,3.8,0,0,1,.18,1.17,3.74,3.74,0,0,1-.18,1.17,2.66,2.66,0,0,1-.53.94,2.44,2.44,0,0,1-.86.63,3.26,3.26,0,0,1-2.38,0,2.42,2.42,0,0,1-.87-.63,2.66,2.66,0,0,1-.53-.94,3.74,3.74,0,0,1-.18-1.17A3.8,3.8,0,0,1,180.35,206.15Zm1,2.09a1.92,1.92,0,0,0,.38.67,1.65,1.65,0,0,0,.57.41,1.73,1.73,0,0,0,1.38,0,1.66,1.66,0,0,0,.57-.41,1.92,1.92,0,0,0,.38-.67,3.13,3.13,0,0,0,0-1.84,2,2,0,0,0-.38-.68,1.61,1.61,0,0,0-.57-.42,1.72,1.72,0,0,0-1.37,0,1.61,1.61,0,0,0-.57.42,2,2,0,0,0-.38.68,3.14,3.14,0,0,0,0,1.84Z" transform="translate(-92.9 -156.69)"/><path class="cls-19" d="M187.79,202.31v7.85h-.94v-7.85Z" transform="translate(-92.9 -156.69)"/></svg>
