<?xml version="1.0" encoding="UTF-8"?>
<svg width="24px" height="29px" viewBox="0 0 24 29" version="1.1" xmlns="http://www.w3.org/2000/svg" xmlns:xlink="http://www.w3.org/1999/xlink">
    <!-- Generator: Sketch 43.1 (39012) - http://www.bohemiancoding.com/sketch -->
    <title>Adjustable</title>
    <desc>Created with Sketch.</desc>
    <defs></defs>
    <g id="Welcome" stroke="none" stroke-width="1" fill="none" fill-rule="evenodd">
        <g id="Detail-page" transform="translate(-336.000000, -764.000000)" fill="#FFFFFF">
            <g id="Adjustable" transform="translate(328.000000, 760.000000)">
                <polygon id="Fill-1" points="22.9333333 21.2355355 31.6212148 27.6652988 31.6212148 14.7877544"></polygon>
                <polygon id="Fill-2" points="8 22.4073911 10.0807111 20.8655863 16.6878815 15.9776278 8 9.52727273"></polygon>
                <polygon id="Fill-3" points="18.4192 6.91535799 21.0292148 6.91535799 21.0292148 4.34139349 18.4192 4.34139349"></polygon>
                <polygon id="Fill-4" points="18.4192 12.0658609 21.0292148 12.0658609 21.0292148 9.49189645 18.4192 9.49189645"></polygon>
                <polygon id="Fill-5" points="18.4192 17.2137899 21.0292148 17.2137899 21.0292148 14.6398254 18.4192 14.6398254"></polygon>
                <polygon id="Fill-6" points="18.4192 22.3617189 21.0292148 22.3617189 21.0292148 19.7877544 18.4192 19.7877544"></polygon>
                <polygon id="Fill-7" points="18.4192 27.5096479 21.0292148 27.5096479 21.0292148 24.9356834 18.4192 24.9356834"></polygon>
                <polygon id="Fill-8" points="18.4192 32.6601509 21.0292148 32.6601509 21.0292148 30.0861864 18.4192 30.0861864"></polygon>
            </g>
        </g>
    </g>
</svg>
