<?xml version="1.0" encoding="UTF-8"?>
<svg width="30px" height="31px" viewBox="0 0 30 31" version="1.1" xmlns="http://www.w3.org/2000/svg" xmlns:xlink="http://www.w3.org/1999/xlink">
    <!-- Generator: Sketch 43.1 (39012) - http://www.bohemiancoding.com/sketch -->
    <title>Visability</title>
    <desc>Created with Sketch.</desc>
    <defs>
        <polygon id="path-1" points="0.134545586 0.179394114 1.92848673 0.179394114 1.92848673 5.15749109 0.134545586 5.15749109 0.134545586 0.179394114"></polygon>
        <polygon id="path-3" points="1.92848673 5.38182343 0.134545586 5.38182343 0.134545586 0.403726454 1.92848673 0.403726454"></polygon>
    </defs>
    <g id="Welcome" stroke="none" stroke-width="1" fill="none" fill-rule="evenodd">
        <g id="Detail-page" transform="translate(-283.000000, -764.000000)">
            <g id="Visability" transform="translate(279.000000, 760.000000)">
                <path d="M12.7939411,19.1175837 C12.7939411,15.9333381 15.1709132,13.287275 18.2206131,12.8836382 L18.2206131,25.3963777 C15.1709132,24.9478924 12.7939411,22.3018292 12.7939411,19.1175837 M27.2351673,19.1175837 C27.2351673,14.6327308 23.6024365,11 19.1175837,11 C14.6327308,11 11,14.6327308 11,19.1175837 C11,23.6024365 14.6327308,27.2351673 19.1175837,27.2351673 C23.6024365,27.2351673 27.2351673,23.6024365 27.2351673,19.1175837" id="Fill-1" fill="#FFFFFF"></path>
                <g id="Group-5" transform="translate(18.000000, 4.000000)">
                    <mask id="mask-2" fill="white">
                        <use xlink:href="#path-1"></use>
                    </mask>
                    <g id="Clip-4"></g>
                    <path d="M1.92848673,4.26052052 L1.92848673,1.07627499 C1.92848673,0.582941174 1.52484997,0.179304417 1.03151616,0.179304417 C0.538182343,0.179304417 0.134545586,0.582941174 0.134545586,1.07627499 L0.134545586,4.26052052 C0.134545586,4.75385433 0.538182343,5.15749109 1.03151616,5.15749109 C1.52484997,5.15749109 1.92848673,4.75385433 1.92848673,4.26052052" id="Fill-3" fill="#FFFFFF" mask="url(#mask-2)"></path>
                </g>
                <path d="M11.7672764,11.7672764 C12.1260646,11.4084882 12.1260646,10.8703058 11.7672764,10.5115176 L9.52484997,8.26909117 C9.16606174,7.91030294 8.6278794,7.91030294 8.26909117,8.26909117 C7.91030294,8.6278794 7.91030294,9.16606174 8.26909117,9.52484997 L10.5115176,11.7672764 C10.6909117,11.9466705 10.9151544,12.0363676 11.139397,12.0363676 C11.3636396,12.0363676 11.5878823,11.9466705 11.7672764,11.7672764" id="Fill-6" fill="#FFFFFF"></path>
                <path d="M4,18.8969706 C4,19.3903044 4.40363676,19.7939411 4.89697057,19.7939411 L8.0812161,19.7939411 C8.57454991,19.7939411 8.97818667,19.3903044 8.97818667,18.8969706 C8.97818667,18.4036368 8.57454991,18 8.0812161,18 L4.89697057,18 C4.40363676,18 4,18.4036368 4,18.8969706" id="Fill-8" fill="#FFFFFF"></path>
                <path d="M8.26909117,29.7672764 C8.44848529,29.9466705 8.67272793,30.0368161 8.89697057,30.0368161 C9.12121321,30.0368161 9.34545586,29.9466705 9.52484997,29.7672764 L11.7672764,27.52485 C12.1260646,27.1660617 12.1260646,26.6278794 11.7672764,26.2690912 C11.4084882,25.9103029 10.8703058,25.9103029 10.5115176,26.2690912 L8.26909117,28.5115176 C7.91030294,28.8254573 7.91030294,29.4084882 8.26909117,29.7672764" id="Fill-10" fill="#FFFFFF"></path>
                <g id="Group-14" transform="translate(18.000000, 29.000000)">
                    <mask id="mask-4" fill="white">
                        <use xlink:href="#path-3"></use>
                    </mask>
                    <g id="Clip-13"></g>
                    <path d="M0.134545586,1.30069703 L0.134545586,4.48494255 C0.134545586,4.97827637 0.538182343,5.38191312 1.03151616,5.38191312 C1.52484997,5.38191312 1.92848673,4.97827637 1.92848673,4.48494255 L1.92848673,1.30069703 C1.92848673,0.806914726 1.52484997,0.403726454 1.03151616,0.403726454 C0.538182343,0.403726454 0.134545586,0.806914726 0.134545586,1.30069703" id="Fill-12" fill="#FFFFFF" mask="url(#mask-4)"></path>
                </g>
                <path d="M28.5115176,29.7672764 C28.6904632,29.9466705 28.9147059,30.0368161 29.1389485,30.0368161 C29.3631912,30.0368161 29.5874338,29.9466705 29.7672764,29.7672764 C30.1260646,29.4084882 30.1260646,28.8703058 29.7672764,28.5115176 L27.52485,26.2690912 C27.1660617,25.9103029 26.6278794,25.9103029 26.2690912,26.2690912 C25.9103029,26.6278794 25.9103029,27.1660617 26.2690912,27.52485 L28.5115176,29.7672764 Z" id="Fill-15" fill="#FFFFFF"></path>
                <path d="M33.9781867,18.8969706 C33.9781867,18.4036368 33.5749984,18 33.0812161,18 L29.8969706,18 C29.4036368,18 29,18.4036368 29,18.8969706 C29,19.3903044 29.4036368,19.7939411 29.8969706,19.7939411 L33.0812161,19.7939411 C33.5749984,19.7939411 33.9781867,19.3903044 33.9781867,18.8969706" id="Fill-17" fill="#FFFFFF"></path>
                <path d="M29.7672764,8.26909117 C29.4084882,7.91030294 28.8703058,7.91030294 28.5115176,8.26909117 L26.2690912,10.5115176 C25.9103029,10.8703058 25.9103029,11.4084882 26.2690912,11.7672764 C26.4489338,11.9466705 26.6731764,12.0363676 26.8974191,12.0363676 C27.1216617,12.0363676 27.3459043,11.9466705 27.52485,11.7672764 L29.7672764,9.52484997 C30.1265131,9.21091027 30.1265131,8.6278794 29.7672764,8.26909117" id="Fill-19" fill="#FFFFFF"></path>
            </g>
        </g>
    </g>
</svg>
