<?xml version="1.0" encoding="UTF-8"?>
<svg width="19px" height="29px" viewBox="0 0 19 29" version="1.1" xmlns="http://www.w3.org/2000/svg" xmlns:xlink="http://www.w3.org/1999/xlink">
    <!-- Generator: Sketch 43.1 (39012) - http://www.bohemiancoding.com/sketch -->
    <title>Disposable</title>
    <desc>Created with Sketch.</desc>
    <defs></defs>
    <g id="Welcome" stroke="none" stroke-width="1" fill="none" fill-rule="evenodd">
        <g id="Detail-page" transform="translate(-534.000000, -764.000000)" fill="#FFFFFF">
            <g id="Disposable" transform="translate(524.000000, 760.000000)">
                <path d="M28.0724585,31.7459782 L28.9941452,25.3875249 C29.0392324,25.0713363 28.8189987,24.7791365 28.5028102,24.7340493 C28.4744862,24.730292 28.4452951,24.7282689 28.416104,24.7285579 L21.7686301,24.7285579 C21.4495513,24.7253787 21.1882767,24.9817399 21.1850975,25.3008187 C21.1848084,25.3300098 21.1868316,25.3586228 21.1905889,25.3875249 L22.1359753,31.7459782 C22.1767272,32.0760397 22.4567881,32.3237304 22.7891618,32.3240194 L27.4134915,32.3240194 C27.7478884,32.3266206 28.0311286,32.0777739 28.0724585,31.7459782 L28.0724585,31.7459782 Z M10,18.0984252 C10.0008671,19.1230032 10.7280429,20.002782 11.7341236,20.1967148 L11.7341236,30.9482813 C11.7193836,31.6413527 12.2289269,32.234134 12.9162179,32.3240194 C13.6405036,32.3942514 14.2847305,31.8638986 14.3552515,31.139324 C14.3592978,31.0971269 14.3613209,31.0543519 14.3613209,31.0118659 L14.3613209,23.3210275 C14.3552515,23.0779612 14.5246176,22.8658201 14.7630596,22.8181317 C15.0243342,22.7655299 15.2789614,22.934607 15.3315631,23.1958816 C15.3382106,23.2285409 15.3413898,23.2617783 15.3411008,23.2950157 L15.3411008,30.9482813 C15.3260717,31.6404857 15.83417,32.2329779 16.5203049,32.3240194 C17.2448795,32.3942514 17.8891065,31.8638986 17.9593385,31.139324 C17.9633848,31.0971269 17.9654079,31.0543519 17.9654079,31.0118659 L17.9654079,14.5376913 L19.2775615,16.2544737 C19.6324788,16.7183518 20.2628327,16.8723998 20.7920294,16.6244201 L24.9914989,14.6417387 C25.5758985,14.3775739 25.8741678,13.7209191 25.6880385,13.1070393 C25.4652036,12.457899 24.7585482,12.1116523 24.109408,12.3341982 C24.0692341,12.3480712 24.0299273,12.3636783 23.9914876,12.3815976 L20.6561898,13.9480893 L18.5087667,11.0983461 C18.2876659,10.7905391 17.9365058,10.6026758 17.5578889,10.5896698 L12.1416427,10.5896698 C10.9604155,10.5879357 10.0017341,11.5443049 10,12.7255321 L10,18.0984252 Z M12.0693875,6.77748803 C12.0693875,5.24365567 13.3130432,4 14.8468756,4 C16.3807079,4 17.6243636,5.24365567 17.6243636,6.77748803 C17.6243636,8.31132038 16.3807079,9.55497605 14.8468756,9.55497605 C13.3130432,9.55497605 12.0693875,8.31132038 12.0693875,6.77748803 L12.0693875,6.77748803 Z" id="Fill-1"></path>
                <path d="M25.233829,16 C24.5526074,16 24,16.5526074 24,17.234118 C24,17.9156286 24.5523184,18.468236 25.233829,18.468236 C25.9156286,18.468236 26.468236,17.9156286 26.468236,17.234118 C26.468236,16.5526074 25.9156286,16 25.233829,16 L25.233829,16 Z" id="Path-Copy-4"></path>
                <path d="M27.233829,21.468236 C27.9156286,21.468236 28.468236,20.9156286 28.468236,20.234118 C28.468236,19.5526074 27.9156286,19 27.233829,19 C26.5526074,19 26,19.5526074 26,20.234118 C26,20.9156286 26.5526074,21.468236 27.233829,21.468236 L27.233829,21.468236 Z" id="Path-Copy-3"></path>
                <path d="M23.2312319,19.0000041 C22.5494323,19.0017382 21.99827,19.5555017 22.0000041,20.2370123 C22.0017382,20.9185229 22.5555017,21.4699742 23.2370123,21.4682401 C23.9185229,21.466795 24.4699742,20.9127425 24.4682401,20.2312319 C24.4665059,19.5497213 23.9127425,18.99827 23.2312319,19.0000041 L23.2312319,19.0000041 Z" id="Path-Copy-2"></path>
            </g>
        </g>
    </g>
</svg>
