<?xml version="1.0" encoding="utf-8"?>
<!-- Generator: Adobe Illustrator 18.0.0, SVG Export Plug-In . SVG Version: 6.00 Build 0)  -->
<!DOCTYPE svg PUBLIC "-//W3C//DTD SVG 1.1//EN" "http://www.w3.org/Graphics/SVG/1.1/DTD/svg11.dtd">
<svg version="1.1" id="Layer_1" xmlns="http://www.w3.org/2000/svg" xmlns:xlink="http://www.w3.org/1999/xlink" x="0px" y="0px"
	 viewBox="0 0 50 50" style="enable-background:new 0 0 50 50;" xml:space="preserve">
<style type="text/css">
	.st0{fill:none;stroke:#0D0708;stroke-width:3.712;}
	.st1{fill:#0D0708;}
	.st2{fill:#FFFFFF;}
	.st3{fill:#C7C8CA;}
	.st4{fill:#64BB46;}
	.st5{fill:#BCBEC0;}
	.st6{fill:#64BC46;}
	.st7{fill:none;stroke:#64BC46;stroke-width:3;}
	.st8{fill:#47639E;}
	.st9{fill:#D34935;}
	.st10{fill:#5FA9DD;}
	.st11{fill:none;stroke:#EEF4F9;stroke-width:0.5;}
	.st12{opacity:0.79;clip-path:url(#SVGID_2_);}
	.st13{clip-path:url(#SVGID_4_);fill:none;stroke:#EBEBEB;stroke-width:0.935;}
	.st14{fill:none;}
	.st15{fill:#A7A9AC;}
	.st16{fill:#CB2128;}
	.st17{fill:#D24933;}
	.st18{fill:#0277B5;}
	.st19{fill:#797979;}
	.st20{fill:none;stroke:#858282;}
	.st21{opacity:0.75;clip-path:url(#SVGID_6_);}
	.st22{clip-path:url(#SVGID_8_);fill:#656565;}
	.st23{opacity:0.75;clip-path:url(#SVGID_10_);}
	.st24{clip-path:url(#SVGID_12_);fill:#656565;}
	.st25{opacity:0.75;clip-path:url(#SVGID_14_);}
	.st26{clip-path:url(#SVGID_16_);fill:#656565;}
	.st27{fill:#2B2B2C;}
	.st28{filter:url(#Adobe_OpacityMaskFilter);}
	.st29{mask:url(#SVGID_17_);}
	.st30{opacity:0.5;clip-path:url(#SVGID_21_);}
	.st31{fill:none;stroke:#FFFFFF;stroke-width:2.626;}
	.st32{filter:url(#Adobe_OpacityMaskFilter_1_);}
	.st33{mask:url(#SVGID_22_);}
	.st34{opacity:0.5;}
	.st35{fill:none;stroke:#FFFFFF;stroke-width:2.601;}
</style>
<path class="st10" d="M39.5,15.5c-1.1,0.6-2.2,0.9-3.4,1.1c1.2-0.8,2.2-2.2,2.6-3.8c-1.1,0.8-2.4,1.3-3.8,1.7
	c-1.1-1.3-2.7-2.1-4.4-2.1c-3.3,0-5.9,3-5.9,6.8c0,0.5,0,1.1,0.1,1.6c-4.9-0.3-9.3-2.9-12.2-7c-0.5,1-0.8,2.1-0.8,3.3
	c0,2.3,1,4.4,2.7,5.7c-1,0-1.9-0.3-2.7-0.8v0.1c0,3.3,2.1,6.1,4.8,6.7c-0.5,0.2-1,0.2-1.6,0.2c-0.4,0-0.7-0.1-1.1-0.1
	c0.7,2.7,3,4.7,5.5,4.7c-2,1.9-4.6,3.2-7.4,3.2c-0.5,0-0.9,0-1.4-0.1c2.6,1.9,5.8,2.8,9.1,2.8c10.9,0,16.9-10.4,16.9-19.4V19
	C37.7,18.1,38.7,16.9,39.5,15.5"/>
</svg>
