<?xml version="1.0" encoding="UTF-8"?>
<svg width="16px" height="16px" viewBox="0 0 16 16" version="1.1" xmlns="http://www.w3.org/2000/svg" xmlns:xlink="http://www.w3.org/1999/xlink">
    <!-- Generator: Sketch 42 (36781) - http://www.bohemiancoding.com/sketch -->
    <title>A6</title>
    <desc>Created with Sketch.</desc>
    <defs></defs>
    <g id="Page-1" stroke="none" stroke-width="1" fill="none" fill-rule="evenodd">
        <g id="A6" fill-rule="nonzero" fill="#000000">
            <path d="M11.7941834,11.2393736 C12.8680089,10.0402685 13.5123043,8.46532438 13.5123043,6.74720358 C13.5123043,3.0246085 10.4697987,0 6.74720358,0 C3.0246085,0 0,3.0246085 0,6.74720358 C0,10.4697987 3.0246085,13.4944072 6.74720358,13.4944072 C8.44742729,13.4944072 9.98657718,12.8680089 11.1677852,11.8299776 L10.6666667,12.3489933 L14.3355705,16.1073826 L16,14.4787472 L12.3131991,10.7203579 L11.7941834,11.2393736 Z M6.74720358,11.1677852 C4.31319911,11.1677852 2.32662192,9.18120805 2.32662192,6.74720358 C2.32662192,4.31319911 4.31319911,2.32662192 6.74720358,2.32662192 C9.18120805,2.32662192 11.1677852,4.31319911 11.1677852,6.74720358 C11.1677852,9.18120805 9.19910515,11.1677852 6.74720358,11.1677852 Z" id="Shape"></path>
        </g>
    </g>
</svg>
