<?xml version="1.0" encoding="UTF-8"?>
<svg width="26px" height="25px" viewBox="0 0 26 25" version="1.1" xmlns="http://www.w3.org/2000/svg" xmlns:xlink="http://www.w3.org/1999/xlink">
    <!-- Generator: Sketch 43.1 (39012) - http://www.bohemiancoding.com/sketch -->
    <title>Hand wash</title>
    <desc>Created with Sketch.</desc>
    <defs></defs>
    <g id="Welcome" stroke="none" stroke-width="1" fill="none" fill-rule="evenodd">
        <g id="Detail-page" transform="translate(-481.000000, -766.000000)" fill="#FFFFFF">
            <g id="Hand-wash" transform="translate(475.000000, 760.000000)">
                <polygon id="Polygon" points="15.8745117 19.3789062 29.9833984 21.6791992 29.046875 30.081543 9.12353516 30.7197266 7.9609375 21.6791992"></polygon>
                <path d="M31.4967542,9.39466601 C31.1904091,9.36188369 30.9078029,9.58457739 30.8727597,9.89431382 L29.8305079,19.2745797 C29.777378,19.3616224 29.7389435,19.4565781 29.7389435,19.5650989 C29.7389435,20.0986595 28.7724302,20.6955238 27.4780937,20.6955238 C26.1848876,20.6955238 25.2172439,20.0986595 25.2172439,19.5650989 C25.2172439,19.2531017 24.9651591,18.9998865 24.6520314,18.9998865 C24.3400341,18.9998865 24.0868189,19.2531017 24.0868189,19.5650989 C24.0868189,20.0986595 23.1203056,20.6955238 21.8259691,20.6955238 C21.2765826,20.6955238 20.7554567,20.5847422 20.3179823,20.3756136 C20.0365065,20.241093 19.6996399,20.3609181 19.5639889,20.6423939 C19.4294683,20.9250001 19.5481629,21.2618667 19.8307692,21.3963873 C20.4185901,21.6778631 21.1104102,21.8259488 21.8259691,21.8259488 C23.0196978,21.8259488 24.0495149,21.4348217 24.6520314,20.8300444 C25.2556783,21.4348217 26.2854954,21.8259488 27.4780937,21.8259488 C28.2942605,21.8259488 29.0233845,21.6349069 29.6032925,21.3263009 L28.835734,28.2309363 C28.7407783,29.0900592 28.0150455,29.7389231 27.1502705,29.7389231 L10.8495432,29.7389231 C9.98476818,29.7389231 9.26016582,29.0900592 9.1640797,28.2309363 L8.39652118,21.3263009 C8.97642916,21.6349069 9.70555323,21.8259488 10.52172,21.8259488 C12.2422267,21.8259488 13.6507362,21.001869 13.8700386,19.8669224 C13.9288207,19.5605772 13.7287355,19.2632755 13.4223903,19.2044934 C13.1149148,19.1457113 12.8198739,19.3457965 12.7599613,19.6521417 C12.6638752,20.1540503 11.7798829,20.6955238 10.52172,20.6955238 C9.22738349,20.6955238 8.26087019,20.0986595 8.26087019,19.5650989 C8.26087019,19.4565781 8.22243575,19.3616224 8.16930578,19.2745797 L7.12705401,9.89431382 C7.09314126,9.58457739 6.82183928,9.35962284 6.50305946,9.39466601 C6.19219261,9.42970918 5.9694989,9.70892413 6.00341165,10.0186606 L8.04043734,28.355283 C8.19982725,29.7886618 9.40825148,30.869348 10.8495432,30.869348 L27.1502705,30.869348 C28.5926926,30.869348 29.7999864,29.7886618 29.9605068,28.355283 L31.9964021,10.0186606 C32.0314452,9.70892413 31.8064907,9.42970918 31.4967542,9.39466601 L31.4967542,9.39466601 Z M15.8154999,7.15642468 L21.7400568,7.13268576 C21.5128414,7.68433312 20.9611941,8.07319929 20.2998955,8.07432971 L17.2884435,8.26311067 C17.0657498,8.27667577 16.8735776,8.42023973 16.7944478,8.62823792 C16.7153181,8.8362361 16.7661872,9.07136448 16.9244467,9.22849355 L22.8173518,15.0942684 C22.9077858,15.183572 22.956394,15.3011362 22.956394,15.4266133 C22.956394,15.5532209 22.9077858,15.6707851 22.8173518,15.7600887 C22.6330925,15.9443479 22.3357908,15.9454784 22.1481402,15.7646104 L19.3559907,12.9894172 C19.1355578,12.7701148 18.7783436,12.7712452 18.5567803,12.9916781 C18.5567803,12.9916781 18.5556499,12.9928085 18.5556499,12.9939389 C18.5545194,12.9950693 18.5545194,12.9950693 18.553389,12.9950693 C18.3340866,13.2166326 18.335217,13.5738469 18.5567803,13.7942798 L21.3455385,16.5615599 C21.3455385,16.5615599 21.346669,16.5615599 21.346669,16.5626904 L22.0814452,17.2940753 C22.1707487,17.3833789 22.2204874,17.500943 22.2204874,17.6264202 C22.2204874,17.7518974 22.1707487,17.8694616 22.0814452,17.9587651 C21.894925,18.1441548 21.5908407,18.1441548 21.4043206,17.9587651 L20.6695444,17.2285106 C20.6695444,17.2285106 20.668414,17.2273802 20.668414,17.2262498 L17.7213963,14.2939276 C17.5020938,14.0746251 17.1426187,14.0757556 16.9221859,14.2961884 C16.701753,14.5177517 16.7028834,14.874966 16.9244467,15.0953988 L17.084967,15.2547887 C17.0860975,15.2559192 17.0872279,15.25818 17.0883583,15.2604409 L19.3119041,17.471552 L19.870334,18.0277211 C19.960768,18.1158942 20.0093763,18.2345888 20.0093763,18.360066 C20.0093763,18.4855431 19.960768,18.6031073 19.870334,18.6924109 C19.6849443,18.8778006 19.38086,18.8778006 19.1943399,18.6924109 L16.2484526,15.7600887 C16.2461918,15.7578278 16.2428005,15.7566974 16.2405396,15.7544366 L16.1331493,15.6481766 C15.9127164,15.4277438 15.5543717,15.4300046 15.3339389,15.6504375 C15.113506,15.8720007 15.1146364,16.229215 15.3361997,16.4496479 L17.6614838,18.7613668 C17.7507873,18.8506704 17.800526,18.9682346 17.800526,19.0937117 C17.800526,19.2191889 17.7507873,19.3367531 17.6614838,19.4260567 C17.4760941,19.6114464 17.1731402,19.6114464 16.9854897,19.4260567 L12.562137,15.0219212 C11.7493615,14.1718417 10.52172,12.8888094 10.52172,11.7606453 C10.52172,9.1674506 13.3658691,7.15642468 15.8154999,7.15642468 L15.8154999,7.15642468 Z M16.1885401,20.2275279 C16.5016678,20.5383948 16.912012,20.6943934 17.3234867,20.6943934 C17.7338309,20.6943934 18.1453056,20.5383948 18.4584333,20.2275279 C18.598606,20.0873552 18.7026051,19.9223132 18.7817348,19.7470973 C19.0191241,19.8748354 19.2723393,19.9618781 19.5334674,19.9618781 C19.9449421,19.9618781 20.3564167,19.804749 20.668414,19.4938822 C20.8085867,19.3548399 20.9137162,19.1897979 20.9917155,19.014582 C21.2279743,19.1411896 21.4811895,19.2282323 21.7423177,19.2282323 C22.1537924,19.2282323 22.5663974,19.0722337 22.8795251,18.7602364 C23.1836094,18.4572825 23.3509123,18.0548513 23.3509123,17.6264202 C23.3509123,17.3562487 23.2638696,17.1075552 23.137262,16.8769485 C23.3090866,16.8000796 23.4741286,16.7017326 23.6154318,16.5615599 C23.9195161,16.2586061 24.0868189,15.8550444 24.0868189,15.4266133 C24.0868189,14.9981823 23.9195161,14.595751 23.6154318,14.2927971 L18.6133015,9.31214499 L20.3338082,9.2036242 C21.7943172,9.2036242 22.9835242,8.02006932 22.9835242,6.56521246 C22.9835242,6.41599637 22.9224813,6.27130198 22.8162213,6.16504204 C22.7110918,6.0587821 22.5675279,6 22.4183118,6 L22.4160509,6 L15.813239,6.02599977 C12.7814394,6.02599977 9.39129511,8.4778914 9.39129511,11.7606453 C9.39129511,13.3421098 10.8077175,14.8229664 11.7685787,15.8279142 L16.1885401,20.2275279 Z" id="Fill-1"></path>
            </g>
        </g>
    </g>
</svg>
