<?xml version="1.0" encoding="UTF-8"?>
<svg width="30px" height="30px" viewBox="0 0 30 30" version="1.1" xmlns="http://www.w3.org/2000/svg" xmlns:xlink="http://www.w3.org/1999/xlink">
    <!-- Generator: Sketch 43.1 (39012) - http://www.bohemiancoding.com/sketch -->
    <title>Machine wash</title>
    <desc>Created with Sketch.</desc>
    <defs></defs>
    <g id="Welcome" stroke="none" stroke-width="1" fill="none" fill-rule="evenodd">
        <g id="Detail-page" transform="translate(-430.000000, -764.000000)" fill="#FFFFFF">
            <g id="Machine-wash" transform="translate(426.000000, 760.000000)">
                <path d="M18.8286379,32.0441703 C12.0488645,32.0441703 6.44787824,26.9119038 5.70018421,20.3294012 C5.64428185,19.8364929 5.61256801,19.3360593 5.61256801,18.8286379 C5.61256801,18.7098454 5.61848076,18.593203 5.6217059,18.474948 C5.81037635,11.35116 11.6602356,5.61256801 18.8291754,5.61256801 C26.1040072,5.61256801 32.0242819,11.5220922 32.0436327,18.7931614 C32.0436327,18.8049869 32.0447078,18.8168124 32.0447078,18.8286379 C32.0447078,19.4113125 32.002781,19.9843116 31.9291404,20.5476354 C31.0830797,27.0247836 25.5331582,32.0441703 18.8286379,32.0441703 M18.8286379,4 C11.1318508,4 4.78747071,9.89501112 4.06934042,17.4068904 C4.02472604,17.8750727 4,18.3486302 4,18.8286379 C4,19.008708 4.00698779,19.1871655 4.01343807,19.365623 C4.29778756,27.2935449 10.8319131,33.6567383 18.8286379,33.6567383 C26.6678685,33.6567383 33.1020149,27.5408053 33.6196492,19.8300426 C33.6422252,19.4989287 33.6567383,19.1656646 33.6567383,18.8286379 C33.6567383,18.5378381 33.6459878,18.2491885 33.6293246,17.9626889 C33.1794182,10.187961 26.7140955,4 18.8286379,4" id="Fill-3"></path>
                <path d="M18.9057975,28.1974143 C14.3497553,28.1974143 10.5564578,24.8991752 9.76952463,20.56728 C9.76952463,20.5656675 9.76952463,20.5645924 9.76898711,20.5629798 C10.4032639,21.2864854 11.2267486,22.1309335 13.2515965,22.1309335 C15.4226506,22.1309335 16.3402018,21.1730681 17.0782204,20.4033356 C17.6388565,19.8190485 17.9769583,19.4658961 18.8176437,19.4658961 C19.6153274,19.4658961 19.8959142,19.7781967 20.4033356,20.3436706 C21.0795391,21.0978149 22.0067657,22.1309335 24.3826159,22.1309335 C26.3053345,22.1309335 27.3072768,21.4595677 27.9926182,20.7989523 C27.1148437,25.0158176 23.3795986,28.1974143 18.9057975,28.1974143 M18.9057975,9.61256801 C23.839718,9.61256801 27.8727506,13.4816562 28.166238,18.3430112 C27.7905097,18.6004846 27.4959472,18.9100976 27.2363238,19.1928346 C26.6041971,19.8776384 26.0586116,20.4705259 24.383691,20.4705259 C22.748547,20.4705259 22.2352129,19.8986018 21.6401753,19.2352989 C21.0687887,18.5983345 20.3581837,17.8060261 18.8187188,17.8060261 C17.2695784,17.8060261 16.4993085,18.6096225 15.8806199,19.2546497 C15.2296799,19.9340783 14.7152707,20.4705259 13.2526715,20.4705259 C11.8916641,20.4705259 11.4901347,20.0109441 10.9354113,19.3745172 C10.60806,18.9982514 10.2221187,18.5816713 9.65556982,18.2693706 C9.98560874,13.4429546 13.9971404,9.61256801 18.9057975,9.61256801 M18.9057975,8 C12.8919938,8 8,12.8919938 8,18.9052599 C8,19.0670543 8.01720073,19.2245484 8.02418852,19.3847302 C8.04837704,19.9346158 8.10374188,20.4759012 8.20694623,21.0015983 C9.1879251,26.0139972 13.6101241,29.8099823 18.9057975,29.8099823 C24.2030834,29.8099823 28.6268949,26.0113096 29.6051862,20.9956856 C29.706778,20.4737511 29.7621428,19.9373035 29.7863313,19.392793 C29.7938567,19.2299236 29.8110574,19.0697419 29.8110574,18.9057975 C29.8110574,12.8919938 24.9190636,8 18.9057975,8" id="Fill-5"></path>
                <path d="M19.233829,11 C18.5526074,11 18,11.5526074 18,12.234118 C18,12.9156286 18.5523184,13.468236 19.233829,13.468236 C19.9156286,13.468236 20.468236,12.9156286 20.468236,12.234118 C20.468236,11.5526074 19.9156286,11 19.233829,11 L19.233829,11 Z" id="Path"></path>
                <path d="M9,21.234118 C9,21.9156286 10.4666828,25.1877441 11.1481934,25.1877441 C11.829993,25.1877441 14.7253418,29.2563477 19.699707,28.3945312 C19.7676009,28.3827685 17.0915527,30.4211426 24.9321289,27.0393066 C28.3742539,25.5546323 28.6968536,22.39116 27.7414551,21.234118 C26.7860565,20.077076 26.3019429,21.7190716 25.6594238,21.4912109 C23.6787919,20.7888066 23.7885461,22.40522 24.0080566,22.1386719 C25.6278036,20.1718389 22.9877886,22.5876266 23.1538086,22.1386719 C24.0484993,19.7192311 20.6517066,20.5282733 20.7241211,20 C21.0492993,17.6277826 18.7467749,20.0397729 18.7416992,19.3625488 C18.7255777,17.2115081 17.9091223,20.5032182 17.6467285,20 C16.8189605,18.4125082 15.3896835,22.3265867 14.9453125,21.8352051 C13.541524,20.2829078 12.7903866,21.6713958 12.717041,21.4912109 C12.5325828,21.0380606 10.8349428,20 10.233829,20 C9.5526074,20 9,20.5526074 9,21.234118 Z" id="Path-Copy"></path>
                <path d="M21.233829,16.468236 C21.9156286,16.468236 22.468236,15.9156286 22.468236,15.234118 C22.468236,14.5526074 21.9156286,14 21.233829,14 C20.5526074,14 20,14.5526074 20,15.234118 C20,15.9156286 20.5526074,16.468236 21.233829,16.468236 L21.233829,16.468236 Z" id="Path"></path>
                <path d="M17.2312319,14.0000041 C16.5494323,14.0017382 15.99827,14.5555017 16.0000041,15.2370123 C16.0017382,15.9185229 16.5555017,16.4699742 17.2370123,16.4682401 C17.9185229,16.466795 18.4699742,15.9127425 18.4682401,15.2312319 C18.4665059,14.5497213 17.9127425,13.99827 17.2312319,14.0000041 L17.2312319,14.0000041 Z" id="Path"></path>
            </g>
        </g>
    </g>
</svg>
