<?xml version="1.0" encoding="UTF-8"?>
<svg width="41px" height="41px" viewBox="0 0 41 41" version="1.1" xmlns="http://www.w3.org/2000/svg" xmlns:xlink="http://www.w3.org/1999/xlink">
    <!-- Generator: Sketch 42 (36781) - http://www.bohemiancoding.com/sketch -->
    <title>360°</title>
    <desc>Created with Sketch.</desc>
    <defs>
        <rect id="path-1" x="0" y="0" width="37" height="37" rx="18.5"></rect>
        <filter x="-50%" y="-50%" width="200%" height="200%" filterUnits="objectBoundingBox" id="filter-2">
            <feOffset dx="0" dy="1" in="SourceAlpha" result="shadowOffsetOuter1"></feOffset>
            <feGaussianBlur stdDeviation="1" in="shadowOffsetOuter1" result="shadowBlurOuter1"></feGaussianBlur>
            <feColorMatrix values="0 0 0 0 0   0 0 0 0 0   0 0 0 0 0  0 0 0 0.299733922 0" type="matrix" in="shadowBlurOuter1"></feColorMatrix>
        </filter>
        <polygon id="path-3" points="23.2274251 13.5965826 23.2274251 0.0983536009 3.3162612e-05 0.0983536009 3.3162612e-05 13.5965826 23.2274251 13.5965826"></polygon>
    </defs>
    <g id="Page-1" stroke="none" stroke-width="1" fill="none" fill-rule="evenodd">
        <g id="360°" transform="translate(2.000000, 1.000000)">
            <g id="Rectangle-6">
                <use fill="black" fill-opacity="1" filter="url(#filter-2)" xlink:href="#path-1"></use>
                <use fill="#FFFFFF" fill-rule="evenodd" xlink:href="#path-1"></use>
            </g>
            <path d="M15.6599255,26.2758099 C15.527275,26.2758099 15.361462,26.2427196 15.2288115,26.2427196 L15.2288115,27.6846057 C15.2288115,29.0606387 16.3563403,30.1742426 17.74917,30.1742426 L19.5731137,30.1742426 C20.9659434,30.1742426 22.0934722,29.0606387 22.0934722,27.6846057 L22.0934722,26.2102845 C21.9608218,26.2427196 21.7950087,26.2427196 21.6623583,26.2758099 C20.7338051,26.374098 19.6726015,26.4396234 18.5782353,26.4396234 C17.5501944,26.4396234 16.5884786,26.374098 15.6599255,26.2758099 Z" id="Fill-1" fill="#2D5597"></path>
            <path d="M15.5604045,8.12514758 C15.5604045,9.82880756 16.9532342,11.2048406 18.67769,11.2048406 C20.4021458,11.2048406 21.7949755,9.82880756 21.7949755,8.12514758 C21.7949755,6.4214876 20.4021458,5.04545455 18.67769,5.04545455 C16.9863968,5.07821724 15.5604045,6.4542503 15.5604045,8.12514758" id="Fill-3" fill="#2D5597"></path>
            <g id="Group-7" transform="translate(7.568182, 11.827332)">
                <mask id="mask-4" fill="white">
                    <use xlink:href="#path-3"></use>
                </mask>
                <g id="Clip-6"></g>
                <path d="M7.66059654,12.0894988 C6.26776684,11.892595 4.97442497,11.5980584 3.91322138,11.2049061 C2.61987951,10.7134658 1.7576516,10.1237373 1.42602548,9.53400885 C1.39286287,9.46848347 1.35970026,9.3701954 1.32653764,9.30467001 C1.29337503,9.20638194 1.29337503,9.14085655 1.29337503,9.04256848 C1.29337503,8.28902656 2.28825339,7.46995927 3.91322138,6.84746812 C4.67596146,6.5526039 5.57135198,6.32326505 6.53306773,6.1266889 L6.53306773,8.38731464 C6.53306773,9.23914463 6.9973443,10.0254492 7.66059654,10.4841269 L7.66059654,12.0894988 Z M22.1194954,7.86311157 C22.0200076,7.66653542 21.8873571,7.43719658 21.7547067,7.20785773 C21.721544,7.14233235 21.6552188,7.10956966 21.5888936,7.10956966 C21.5225684,7.10956966 21.4562431,7.10956966 21.4230805,7.17509504 C20.5608526,7.92863695 19.3005374,8.45940953 18.2061712,9.21295144 C17.7418946,9.54057836 16.6962457,9.43465412 16.1656439,9.79504373 C16.0993186,9.86024149 17.1476385,10.450135 17.1476385,10.5480955 C17.1808011,10.6467112 17.5095764,10.698242 17.6090643,10.698242 C17.8412026,10.7313323 17.6318088,10.8364388 17.8639471,10.8692014 C18.129248,10.9019641 18.305795,11.00833 18.5710959,11.0410927 C18.4384455,11.1066181 18.305795,11.1721434 18.1399819,11.2049061 C17.7420306,11.3359569 17.3440793,11.4997704 16.9129653,11.5980584 C16.1833878,11.7946346 15.4206478,11.9584481 14.5915825,12.0564085 L14.5915825,10.4513642 C15.2879973,9.99268654 15.7191113,9.23914463 15.7191113,8.35455195 L15.7191113,2.58831818 C15.7191113,1.21228512 14.5915825,0.0983536009 13.1987528,0.0983536009 L9.08658886,0.0983536009 C7.69375915,0.0983536009 6.56623035,1.21228512 6.56623035,2.58831818 L6.56623035,4.81618123 C2.61987951,5.50419776 3.3162612e-05,7.07680697 3.3162612e-05,9.04256848 C3.3162612e-05,9.3374327 0.0663583867,9.63229693 0.199008835,9.92716116 C1.16072458,12.0894988 5.50502676,13.5965826 11.043183,13.5965826 C15.4206478,13.5965826 19.0685351,12.6464646 20.8593161,11.1721434 C21.5888936,11.2049061 22.2853085,11.2373412 23.0148859,11.2704315 C23.0812111,11.2704315 23.1475364,11.2373412 23.180699,11.2049061 C23.2138616,11.1721434 23.2470242,11.1066181 23.2138616,11.0410927 C23.0148859,9.99268654 22.6500972,8.9442804 22.1194954,7.86311157 Z" id="Fill-5" fill="#2D5597" mask="url(#mask-4)"></path>
            </g>
        </g>
    </g>
</svg>
