<?xml version="1.0" encoding="UTF-8"?>
<svg width="52px" height="44px" viewBox="0 0 52 44" version="1.1" xmlns="http://www.w3.org/2000/svg" xmlns:xlink="http://www.w3.org/1999/xlink">
    <!-- Generator: Sketch 42 (36781) - http://www.bohemiancoding.com/sketch -->
    <title>Path</title>
    <desc>Created with Sketch.</desc>
    <defs></defs>
    <g id="Page-1" stroke="none" stroke-width="1" fill="none" fill-rule="evenodd">
        <g id="Letter" transform="translate(-1.000000, -1.000000)" stroke="#000000" fill="#000000">
            <path d="M13.4762566,11.4854059 C12.3507515,5.79535195 12.4758076,5.54523969 11.6629427,5.23259937 L3.84693454,2.10619609 C2.2837329,1.48091543 1.40833998,3.79445386 2.90901356,4.41973451 L10.037213,7.35855359 C10.037213,7.48360972 15.727267,35.8713515 15.727267,35.8713515 C11.9755831,38.1848899 13.6013128,44 17.9782774,44 C20.6044561,44 22.6678823,41.6864616 22.2927139,38.9977548 L38.9251793,38.9977548 C38.5500109,41.6864616 40.6134371,44 43.2396158,44 C45.6782104,44 47.6165804,42.06163 47.6165804,39.6230354 C47.6165804,37.0148806 45.4939732,35.28407 43.2670365,35.2493391 C42.1838727,35.2324463 41.0760269,35.6168069 40.1757406,36.4966321 L21.1046806,36.4966321 C20.3543438,35.7462953 19.3538948,35.3085989 18.1658615,35.2460708 L17.9782774,30.8096313 L47.6165804,30.8096313 C48.179333,30.8096313 49.1243035,27.7354516 49.2493596,27.172699 L51.8684889,19.4175415 C51.9310169,19.0423731 52.1186011,16.6127073 51.8684889,16.300067 C51.3682644,15.6747863 53.9944431,16.1124828 13.4762566,11.4854059 Z" id="Path"></path>
        </g>
    </g>
</svg>
