<?xml version="1.0" encoding="UTF-8"?>
<svg width="38px" height="38px" viewBox="0 0 38 38" version="1.1" xmlns="http://www.w3.org/2000/svg" xmlns:xlink="http://www.w3.org/1999/xlink">
    <!-- Generator: Sketch 43.1 (39012) - http://www.bohemiancoding.com/sketch -->
    <title>Flame retardant</title>
    <desc>Created with Sketch.</desc>
    <defs></defs>
    <g id="Welcome" stroke="none" stroke-width="1" fill="none" fill-rule="evenodd">
        <g id="Detail-page" transform="translate(-375.000000, -762.000000)">
            <g id="Flame-retardant" transform="translate(377.000000, 760.000000)">
                <path d="M26.3937002,17.2122683 C21.8766128,11.1142004 20.4892217,7.08108667 21.102255,3.79006589 C17.6499097,5.11292718 13.9071802,10.3721074 13.4554714,14.5665457 C11.7454312,13.2114195 12.3907294,10.0817233 12.906968,9.27510052 C7.84137715,14.3084264 6.3249264,20.3419645 7.26060878,23.8911046 C8.13176134,27.1175955 10.3580401,30.2150269 13.616796,32.3764531 C11.6163716,28.2791323 16.7142273,27.2140676 16.9400817,24.1814888 C17.4240553,24.6009326 18.2952079,25.4398202 17.6821746,27.0853306 C18.9082411,26.4074449 20.8441357,23.5039257 19.9407183,21.600296 C23.1994741,22.8586275 27.8456211,28.7953708 24.7159249,32.8284845 C28.7813035,30.4086163 31.4270261,27.1821254 30.9430524,23.0844818 C30.4590788,18.8577787 27.168058,14.7278702 27.4907071,12.4047968 C26.2001107,14.469751 26.3291704,16.7605595 26.3937002,17.2122683 Z" id="Fill-1" fill="#FFFFFF"></path>
                <path d="M34.5,3.5 L0.134319445,37.8656806" id="Line" stroke="#FFFFFF" stroke-width="2" stroke-linecap="square"></path>
            </g>
        </g>
    </g>
</svg>
