<svg id="Layer_1" data-name="Layer 1" xmlns="http://www.w3.org/2000/svg" xmlns:xlink="http://www.w3.org/1999/xlink" viewBox="0 0 48 47.77"><defs><style>.cls-1{fill:none;}.cls-2{clip-path:url(#clip-path);}.cls-3{clip-path:url(#clip-path-2);}.cls-4{fill:#2d5698;opacity:0.5;}.cls-5{fill:#fff;}</style><clipPath id="clip-path" transform="translate(-234.09 -307.7)"><ellipse class="cls-1" cx="258.09" cy="331.58" rx="19" ry="18.88"/></clipPath><clipPath id="clip-path-2" transform="translate(-234.09 -307.7)"><rect class="cls-1" x="-584.91" y="-337.3" width="961" height="1988"/></clipPath></defs><title>quote-mark</title><g class="cls-2"><g class="cls-3"><rect class="cls-4" width="48" height="47.77"/></g></g><g class="cls-3"><path class="cls-5" d="M258,329.7a15.63,15.63,0,0,1-1.52,6.47,15.16,15.16,0,0,1-4.11,5.5l-3.5-2.31a18.51,18.51,0,0,0,2.22-4.55,16.26,16.26,0,0,0,.75-5v-5.84H258Zm9.94,0a15.63,15.63,0,0,1-1.52,6.47,15.16,15.16,0,0,1-4.11,5.5l-3.5-2.31a18.51,18.51,0,0,0,2.22-4.55,16.26,16.26,0,0,0,.75-5v-5.84H268Z" transform="translate(-234.09 -307.7)"/></g></svg>
